<?xml version="1.0" encoding="UTF-8" standalone="no"?>
<!-- Created with Inkscape (http://www.inkscape.org/) -->

<svg
   width="210mm"
   height="297mm"
   viewBox="0 0 210 297"
   version="1.1"
   id="svg1"
   xml:space="preserve"
   sodipodi:docname="icon.svg"
   inkscape:version="1.4.3 (0d15f75, 2025-12-25)"
   xmlns:inkscape="http://www.inkscape.org/namespaces/inkscape"
   xmlns:sodipodi="http://sodipodi.sourceforge.net/DTD/sodipodi-0.dtd"
   xmlns="http://www.w3.org/2000/svg"
   xmlns:svg="http://www.w3.org/2000/svg"><sodipodi:namedview
     id="namedview1"
     pagecolor="#ffffff"
     bordercolor="#000000"
     borderopacity="0.25"
     inkscape:showpageshadow="2"
     inkscape:pageopacity="0.0"
     inkscape:pagecheckerboard="0"
     inkscape:deskcolor="#d1d1d1"
     inkscape:document-units="mm"
     inkscape:zoom="2.0334082"
     inkscape:cx="359.24907"
     inkscape:cy="504.81749"
     inkscape:window-width="1920"
     inkscape:window-height="1009"
     inkscape:window-x="-8"
     inkscape:window-y="-8"
     inkscape:window-maximized="1"
     inkscape:current-layer="layer1" /><defs
     id="defs1" /><g
     inkscape:label="Layer 1"
     inkscape:groupmode="layer"
     id="layer1"><path
       style="fill:#000000;stroke-width:0.811859"
       d="m 53.783672,205.41208 -2.362847,-0.17786 -2.792456,-0.46273 -2.792455,-0.46273 -2.47025,-0.74215 -2.470249,-0.74214 -1.825836,-0.77382 -1.825837,-0.77384 -1.915168,-1.07215 -1.915168,-1.07216 -2.058712,-1.55084 -2.05871,-1.55084 -1.665773,-1.74359 -1.665773,-1.7436 -1.389493,-1.87912 -1.389493,-1.87912 -1.180393,-2.27185 -1.180393,-2.27186 -0.761801,-1.97256 -0.761801,-1.97255 -0.639406,-2.61847 -0.639407,-2.61846 -0.377654,-2.4828 -0.377653,-2.48278 V 121.87049 73.646931 l 0.386748,-2.470251 0.386748,-2.470251 0.447053,-1.933239 0.447054,-1.933238 0.737751,-2.126275 0.737751,-2.126282 1.146159,-2.285375 1.146159,-2.285374 1.347162,-2.03248 1.347163,-2.032472 2.808862,-2.796018 2.808864,-2.796025 1.933238,-1.311858 1.933239,-1.311867 2.227621,-1.116062 2.227621,-1.11607 1.706946,-0.629369 1.706946,-0.62937 2.079953,-0.520361 2.079953,-0.52036 2.169789,-0.338334 2.169788,-0.338334 4.059536,-0.213479 4.059536,-0.213478 h 42.531256 42.53125 l 4.08128,0.211489 4.08128,0.211489 2.47025,0.332262 2.47025,0.332269 2.15574,0.513087 2.15575,0.513095 1.71073,0.57909 1.71073,0.579091 2.17108,1.034349 2.17108,1.03434 2.33981,1.558428 2.33981,1.558428 2.69722,2.696784 2.69723,2.696784 1.42966,2.156313 1.42968,2.156313 0.95461,1.924966 0.95462,1.924974 0.78707,2.255441 0.78708,2.255449 0.52378,2.304932 0.52378,2.30494 0.35532,2.635562 0.35532,2.635561 0.0863,44.034885 0.0863,44.03487 -0.22655,4.33631 -0.22656,4.3363 -0.32723,2.21523 -0.32725,2.21522 -0.55822,2.25223 -0.55824,2.25223 -0.62737,1.70151 -0.62737,1.70152 -0.94288,1.95338 -0.94288,1.95337 -1.28289,1.93324 -1.28289,1.93324 -1.51635,1.74757 -1.51634,1.74758 -1.67472,1.43914 -1.67472,1.43916 -1.78051,1.18845 -1.78052,1.18844 -2.30077,1.13533 -2.30076,1.13533 -2.25545,0.75127 -2.25544,0.75127 -2.06067,0.44438 -2.06067,0.44438 -2.55762,0.36961 -2.55762,0.3696 -47.79396,0.0394 -47.793961,0.0394 z m -1.550414,-15.44987 1.120806,-0.41964 0.778898,-0.64248 0.778898,-0.64247 0.509928,-1.02662 0.509927,-1.02663 0.107403,-6.71287 0.107401,-6.71287 -1.718434,8e-5 -1.718434,8e-5 0.06093,5.51622 0.06093,5.51621 -0.230626,1.11093 -0.230626,1.11092 -0.582117,0.54272 -0.582115,0.54271 -0.469188,0.24105 -0.469189,0.24106 -1.356648,-3.4e-4 -1.356648,-3.4e-4 -0.744508,-0.37557 -0.744508,-0.37557 -0.436916,-0.75182 -0.436916,-0.75181 -0.06563,-6.28303 -0.06563,-6.28302 H 43.339752 41.61926 l 0.06784,6.60523 0.06784,6.60523 0.386245,0.85922 0.386246,0.85922 0.795028,0.82321 0.795029,0.82323 0.644412,0.34674 0.644413,0.34673 1.181424,0.27532 1.181423,0.27532 1.671651,-0.10835 1.671651,-0.10835 z m 16.013816,0.0994 1.136925,-0.33763 1.040497,-1.00798 1.040497,-1.00799 0.258472,-0.96663 0.258472,-0.96661 -0.119866,-1.16971 -0.119866,-1.16971 -0.610221,-0.86824 -0.610221,-0.86824 -1.173102,-0.59372 -1.173101,-0.59372 -2.417874,-0.60789 -2.417874,-0.60791 -0.524543,-0.49278 -0.524542,-0.49278 -0.133932,-0.60979 -0.133932,-0.60979 0.284139,-0.59836 0.284139,-0.59836 0.751569,-0.37557 0.751568,-0.37557 h 0.966619 0.96662 l 0.738233,0.37557 0.738233,0.37557 0.335789,0.69323 0.335788,0.69324 1.664733,0.005 1.664734,0.005 v -0.32911 -0.3291 l -0.333602,-0.79862 -0.333601,-0.79861 -0.579317,-0.61074 -0.579317,-0.61075 -1.074022,-0.54887 -1.074021,-0.54887 -1.961652,-0.10346 -1.961653,-0.10345 -1.253053,0.39413 -1.253052,0.39413 -1.007663,0.97634 -1.007663,0.97635 -0.256962,0.96439 -0.256963,0.96439 0.125529,0.91583 0.125528,0.91583 0.443645,0.86962 0.443645,0.86961 1.010299,0.64226 1.010299,0.64225 1.449929,0.42068 1.449929,0.42068 1.489536,0.43151 1.489535,0.43151 0.443703,0.56408 0.443703,0.56408 v 0.51871 0.51871 l -0.325842,0.63011 -0.325843,0.63011 -0.682033,0.35269 -0.682032,0.3527 H 65.1683 63.854584 l -0.67263,-0.34784 -0.672629,-0.34783 -0.335246,-0.47863 -0.335246,-0.47863 v -0.38181 -0.38182 h -1.718434 -1.718435 v 0.43651 0.43651 l 0.333094,0.79862 0.333093,0.79861 0.687227,0.71644 0.687228,0.71645 0.616178,0.32256 0.616178,0.32256 1.31706,0.29951 1.317061,0.29951 1.400533,-0.1003 1.400532,-0.1003 z m 65.481846,-0.20765 1.11207,-0.49682 0.57104,-0.86291 0.57105,-0.86291 0.11394,-0.84953 0.11395,-0.84953 -0.24469,-0.74143 -0.24469,-0.74143 -0.60649,-0.58105 -0.60649,-0.58104 -2.52269,-0.62387 -2.52269,-0.62386 -0.51753,-0.33911 -0.51753,-0.33909 v -0.51647 -0.51647 l 0.56598,-0.4452 0.56597,-0.4452 h 1.06628 1.06627 l 0.60198,0.64441 0.60197,0.64442 h 1.44073 1.44073 l -0.14742,-0.59071 -0.14743,-0.59072 -0.42399,-0.68775 -0.42398,-0.68776 -1.1823,-0.57844 -1.1823,-0.57845 -1.43793,-0.0126 -1.43794,-0.0126 -1.04909,0.29439 -1.04909,0.2944 -0.80813,0.76954 -0.80813,0.76955 -0.24626,0.9161 -0.24626,0.9161 0.14333,0.76398 0.14332,0.764 0.53581,0.63677 0.53582,0.63677 0.6135,0.31726 0.6135,0.31726 1.88486,0.43597 1.88486,0.43598 0.59344,0.23287 0.59345,0.23285 0.1363,0.54307 0.1363,0.54307 -0.21382,0.34265 -0.21382,0.34267 -0.51592,0.26534 -0.51593,0.26533 -0.92358,0.003 -0.92359,0.003 -0.60771,-0.31426 -0.60772,-0.31426 -0.12669,-0.33016 -0.12669,-0.33015 h -1.60661 -1.60659 l 0.24065,0.69812 0.24064,0.69811 0.41167,0.56189 0.41168,0.56188 0.86221,0.48459 0.86221,0.48459 1.10565,0.16602 1.10564,0.16601 1.18143,-0.1059 1.18142,-0.1059 z m 13.00638,0.0654 1.0154,-0.4341 0.83466,-0.9055 0.83467,-0.90551 0.3973,-1.16451 0.3973,-1.1645 -0.0155,-1.71844 -0.0155,-1.71843 -0.47173,-1.22603 -0.47173,-1.22605 -1.05063,-0.9446 -1.05063,-0.94462 -1.03167,-0.29694 -1.03168,-0.29693 -1.39623,0.0217 -1.39623,0.0218 -1.09708,0.47212 -1.09709,0.47213 -0.77185,0.79224 -0.77185,0.79224 -0.48219,1.07403 -0.48219,1.07401 0.008,1.93324 0.008,1.93324 0.47153,1.21508 0.47153,1.21508 0.96033,0.88521 0.96033,0.8852 0.58907,0.22674 0.58906,0.22673 0.85922,0.18229 0.85922,0.1823 1.18142,-0.11261 1.18142,-0.1126 z m -4.33011,-2.46788 -0.73708,-0.3878 -0.44224,-0.85923 -0.44225,-0.85921 0.006,-1.71844 0.006,-1.71843 0.34491,-0.64492 0.34491,-0.64492 0.45965,-0.41598 0.45965,-0.41597 1.22708,-0.0787 1.22708,-0.0787 0.6616,0.4161 0.6616,0.41609 0.39649,0.83088 0.39648,0.83087 -0.005,1.61104 -0.005,1.61103 -0.33729,0.78881 -0.33728,0.78881 -0.56716,0.37162 -0.56716,0.37161 -1.00812,0.0866 -1.0081,0.0866 z m -58.153405,2.3739 1.03992,-0.339 0.76593,-0.6725 0.76594,-0.6725 0.39117,-0.86106 0.39117,-0.86106 0.003,-0.85922 0.003,-0.85921 -0.23737,-0.85922 -0.23737,-0.85922 -0.83397,-0.7955 -0.83398,-0.79551 -0.77253,-0.14492 -0.77252,-0.14493 0.81839,-0.45906 0.8184,-0.45908 0.47886,-0.71058 0.47886,-0.71058 0.13683,-0.91245 0.13683,-0.91245 -0.25407,-0.94356 -0.25408,-0.94356 -0.79079,-0.7908 -0.79079,-0.79079 -1.16079,-0.34471 -1.16079,-0.34472 -4.095997,-7e-5 -4.095996,-7e-5 0.05806,8.75334 0.05806,8.75335 4.452823,-0.0607 4.45283,-0.0606 z m -6.685354,-4.7221 0.06052,-2.4974 2.450794,0.0394 2.45079,0.0394 0.6038,0.31223 0.6038,0.31225 0.24605,0.45973 0.24604,0.45975 -0.0119,0.86572 -0.0119,0.86572 -0.40895,0.55185 -0.40896,0.55185 -0.73169,0.25638 -0.7317,0.25638 -2.20856,0.0121 -2.208555,0.0121 z m -0.04688,-7.3884 v -2.40676 l 2.246524,0.0832 2.24652,0.0832 0.59787,0.44638 0.59786,0.44637 0.19395,0.67625 0.19395,0.67625 -0.19395,0.67626 -0.19395,0.67625 -0.60398,0.45148 -0.60398,0.45146 -2.24041,0.0732 -2.240404,0.0732 z m 21.647774,9.70395 0.0599,-2.8254 h 2.354315 2.35429 l 1.08903,-0.4138 1.08902,-0.41379 0.72244,-0.55104 0.72245,-0.55104 0.60739,-1.23692 0.60739,-1.2369 -0.0131,-1.61103 -0.0131,-1.61104 -0.56836,-1.10234 -0.56837,-1.10234 -0.92045,-0.67691 -0.92045,-0.67692 -1.06101,-0.31509 -1.06101,-0.31508 h -3.934895 -3.9349 v 8.76986 8.76987 l 1.66473,-0.0373 1.66474,-0.0374 z m 0.0475,-8.70073 v -3.36126 h 1.780335 1.78033 l 0.95843,0.48331 0.95843,0.48331 0.3878,0.75181 0.3878,0.75182 -0.0893,1.03632 -0.0893,1.03632 -0.42836,0.57471 -0.42836,0.57471 -0.66444,0.38913 -0.66444,0.38913 -1.94446,0.12598 -1.944465,0.12598 z m 14.606695,7.32243 0.1074,-4.20972 0.44489,-0.60563 0.44488,-0.60563 0.73654,-0.37558 0.73655,-0.37557 0.91292,-3.3e-4 0.91292,-3.4e-4 v -1.05645 -1.05646 l 0.11954,-0.31154 0.11956,-0.31154 -0.42211,-0.11039 -0.4221,-0.11038 -0.90211,0.16496 -0.9021,0.16496 -0.56748,0.42025 -0.56748,0.42025 -0.4833,0.71013 -0.48331,0.71013 v -1.21319 -1.21319 h -1.50364 -1.50362 v 6.61446 6.61446 l 1.55733,-0.0269 1.55733,-0.0269 z m 9.23658,-2.36002 v -6.60524 h -1.50363 -1.50362 v 6.60524 6.60523 h 1.50362 1.50363 z m 32.22065,2.15022 0.10741,-4.42939 0.45013,-0.6057 0.45012,-0.6057 0.80815,-0.27055 0.80816,-0.27055 0.83663,0.22528 0.83664,0.22529 0.37533,0.57191 0.37533,0.57192 0.10741,4.52125 0.1074,4.52125 1.50363,-0.0144 1.50362,-0.0144 0.0669,-4.3891 0.0669,-4.3891 -0.24827,-1.14957 -0.24827,-1.14956 -0.75807,-0.83909 -0.75807,-0.83909 -1.16279,-0.33803 -1.16279,-0.33804 -0.90502,0.15035 -0.90499,0.15035 -0.56513,0.28909 -0.56513,0.28909 -0.55016,0.65383 -0.55016,0.65383 -0.0662,-0.91462 -0.0662,-0.91463 -1.55733,-0.0631 -1.55733,-0.0631 v 6.52514 6.52514 l 0.09,0.0895 0.0901,0.0895 1.46728,-0.0128 1.46729,-0.0128 z m -32.503,-10.94094 0.49716,-0.46706 v -0.82177 -0.82177 l -0.42961,-0.42961 -0.42961,-0.42961 h -0.79167 -0.79167 l -0.49715,0.46705 -0.49716,0.46706 v 0.80618 0.80618 l 0.56598,0.4452 0.56598,0.4452 h 0.6553 0.6553 z m 17.03707,-66.99426 V 52.488706 h -3.00726 -3.00726 v 55.413264 55.41328 l 2.84616,0.0599 2.84616,0.0599 0.16109,-0.0664 0.16111,-0.0664 z m -89.35859,0.0127 V 52.488706 h -3.00726 -3.007259 v 55.419504 55.41951 h 3.007259 3.00726 z m 22.98406,0 V 52.488706 h -2.899883 -2.899858 v 55.419504 55.41951 h 2.899858 2.899858 z m 22.072895,43.1227 -0.0554,-12.2968 -0.75182,0.0612 -0.75181,0.0612 -1.71844,-0.3198 -1.71843,-0.3198 -0.48331,-0.14311 -0.48331,-0.14311 v 12.69851 12.6985 h 3.00902 3.00902 z m 22.391595,-0.72183 v -13.01864 l -0.37591,0.16534 -0.3759,0.16533 -1.39623,0.49651 -1.39623,0.49652 -0.64441,0.008 -0.64441,0.008 -0.47986,0.12862 -0.47986,0.12861 -0.0571,12.21974 -0.0572,12.21974 2.95356,-4e-5 2.95356,-4e-5 z M 160.21923,107.9082 V 52.488706 h -3.00726 -3.00726 v 55.419504 55.41951 h 3.00726 3.00726 z m -62.099075,53.63621 0.946,-0.6457 1.268025,-1.26802 1.26802,-1.26802 0.96289,-1.48847 0.96289,-1.48847 0.54802,-1.45282 0.54802,-1.45282 0.30265,-1.57622 0.30266,-1.57623 v -0.41072 -0.41071 h -1.89802 -1.89803 l -0.36381,1.3086 -0.36382,1.30858 -0.55628,1.10796 -0.556295,1.10796 -0.92004,1.28883 -0.92005,1.28883 -0.77272,0.74024 -0.77272,0.74025 v 2.65048 2.65047 l 0.48331,-0.25415 0.48331,-0.25415 z m 9.381345,-15.28902 0.34884,-0.53239 -0.0975,-3.44554 -0.0974,-3.44553 -4.43524,-0.0497 -4.435255,-0.0497 1.3e-4,3.76982 1.3e-4,3.76982 0.25777,0.25776 0.25776,0.25777 h 3.925975 3.92597 z m 8.07533,-10.14063 1.21832,-0.4621 1.23972,-0.79304 1.23973,-0.79305 1.11465,-1.16008 1.11465,-1.16008 0.75783,-1.4474 0.75782,-1.44739 0.39518,-1.28882 0.39517,-1.28883 V 109.3396 92.405228 l -0.60269,-0.518477 -0.60269,-0.518469 h -19.6524 -19.652385 l -0.53338,0.533374 -0.53338,0.533384 0.0616,17.24167 0.0616,17.24168 0.49925,1.33668 0.49925,1.33669 0.80732,1.24096 0.80732,1.24098 0.90493,0.92507 0.90492,0.92507 1.31509,0.84998 1.31509,0.84998 1.62691,0.52877 1.62692,0.52878 10.847625,-0.0522 10.84762,-0.0523 z m -13.24736,-5.5947 -0.4296,-0.10756 -0.56424,-0.40031 -0.56422,-0.40029 -0.34869,-0.73481 -0.34869,-0.7348 8e-4,-0.71936 8.1e-4,-0.71935 0.43329,-0.71068 0.43328,-0.71068 0.63857,-0.36334 0.63857,-0.36334 -0.003,-0.75182 -0.003,-0.75181 -0.37112,-0.45455 -0.37113,-0.45453 -2.084475,-1.55115 -2.08448,-1.55117 -0.54688,-1.09743 -0.54688,-1.09744 v -1.33753 -1.33753 l -0.64441,-0.64441 -0.64442,-0.64442 v -0.89227 -0.89226 l 0.62789,-0.62789 0.62789,-0.62789 h 0.5642 0.56421 l 0.61045,0.31568 0.61046,0.31568 0.21997,0.631 0.21997,0.631 -0.17874,0.79252 -0.17875,0.79251 -0.44754,0.4764 -0.44755,0.47639 0.001,0.63057 0.001,0.63056 0.22186,0.79885 0.22186,0.79884 0.52069,0.61881 0.52069,0.61881 1.511705,1.10297 1.51169,1.10297 v -8.15923 -8.15923 h -0.75181 -0.75182 l 0.008,-0.37591 0.008,-0.37591 1.0212,-1.71715 1.0212,-1.71715 0.32281,-0.0622 0.3228,-0.06219 1.01113,1.815857 1.01113,1.81587 v 0.33936 0.33936 h -0.75182 -0.75181 v 6.23687 6.2369 l 0.37591,-0.2067 0.3759,-0.2067 1.28883,-1.04047 1.28883,-1.04046 0.37557,-0.74734 0.37557,-0.74734 3.4e-4,-1.02032 3.3e-4,-1.02032 h -0.38665 -0.38665 l -0.25776,-0.25776 -0.25777,-0.25777 v -1.84732 -1.84731 l 0.25777,-0.25777 0.25776,-0.25777 h 1.54177 1.54177 l 0.24945,0.30058 0.24946,0.30057 -0.062,2.00857 -0.062,2.00858 -0.45903,0.0654 -0.45904,0.0654 -0.085,1.33513 -0.085,1.33514 -0.44228,0.85486 -0.44227,0.85485 -1.37652,1.13628 -1.37653,1.13628 -1.02032,0.91312 -1.02032,0.91313 0.005,2.67628 0.005,2.6763 0.69347,0.32221 0.69346,0.3222 0.4913,0.9896 0.49129,0.98961 -0.20455,0.91037 -0.20455,0.91037 -0.50155,0.54426 -0.50155,0.54425 -0.69122,0.29453 -0.6912,0.29452 -0.38281,-0.0249 -0.38281,-0.0249 z M 119.51379,77.513408 V 65.699166 l -0.15488,-0.377254 -0.15488,-0.377263 -16.27765,0.05504 -16.277655,0.05504 -0.0555,12.19148 -0.0555,12.191472 16.488005,-0.05504 16.48801,-0.05504 z m -27.901585,3.634099 -0.13038,-0.339771 v -3.097095 -3.097095 h 3.39391 3.39391 l 0.25776,0.257765 0.25777,0.257765 v 2.921336 2.921344 l -0.25777,0.257765 -0.25776,0.257765 h -3.26353 -3.26352 z m 16.028245,0.08735 -0.2631,-0.263099 V 78.033755 75.09576 l 0.2976,-0.246992 0.2976,-0.246984 3.19297,0.05959 3.19297,0.05959 v 3.329465 3.329466 l -3.22747,0.05902 -3.22747,0.05902 z M 95.563105,57.644009 v -5.155303 h -3.00726 -3.00726 v 5.155303 5.155303 h 3.00726 3.00726 z m 22.339655,0 v -5.155303 l -2.95356,-1.71e-4 -2.95356,-1.7e-4 0.0611,5.155473 0.0611,5.155474 h 2.89241 2.89242 z"
       id="path1" /></g></svg>
