<?xml version="1.0" encoding="UTF-8" standalone="no"?>
<!-- Created with Inkscape (http://www.inkscape.org/) -->

<svg
   width="169.54776mm"
   height="169.54773mm"
   viewBox="0 0 169.54776 169.54773"
   version="1.1"
   id="svg1"
   xml:space="preserve"
   inkscape:version="1.4.3 (0d15f75, 2025-12-25)"
   sodipodi:docname="appicon.svg"
   xmlns:inkscape="http://www.inkscape.org/namespaces/inkscape"
   xmlns:sodipodi="http://sodipodi.sourceforge.net/DTD/sodipodi-0.dtd"
   xmlns="http://www.w3.org/2000/svg"
   xmlns:svg="http://www.w3.org/2000/svg"><sodipodi:namedview
     id="namedview1"
     pagecolor="#ffffff"
     bordercolor="#000000"
     borderopacity="0.25"
     inkscape:showpageshadow="2"
     inkscape:pageopacity="0.0"
     inkscape:pagecheckerboard="0"
     inkscape:deskcolor="#d1d1d1"
     inkscape:document-units="mm"
     showguides="false"
     inkscape:zoom="0.71891835"
     inkscape:cx="360.95893"
     inkscape:cy="529.26734"
     inkscape:window-width="1920"
     inkscape:window-height="1009"
     inkscape:window-x="-8"
     inkscape:window-y="-8"
     inkscape:window-maximized="1"
     inkscape:current-layer="layer2"><inkscape:page
       x="0"
       y="0"
       width="169.54776"
       height="169.54773"
       id="page2"
       margin="0"
       bleed="0" /></sodipodi:namedview><defs
     id="defs1"><inkscape:path-effect
       effect="fillet_chamfer"
       id="path-effect10"
       is_visible="true"
       lpeversion="1"
       nodesatellites_param="F,0,0,1,0,0,0,1 @ F,0,0,1,0,0,0,1 @ F,0,0,1,0,1.8802074,0,1 @ F,0,0,1,0,2.0363493,0,1"
       radius="0"
       unit="px"
       method="auto"
       mode="F"
       chamfer_steps="1"
       flexible="false"
       use_knot_distance="true"
       apply_no_radius="true"
       apply_with_radius="true"
       only_selected="false"
       hide_knots="false" /></defs><g
     inkscape:groupmode="layer"
     id="layer2"
     inkscape:label="Layer 2"
     transform="translate(-18.774147,-40.119792)"><rect
       style="fill:none;fill-opacity:1;stroke:none;stroke-width:0.232436"
       id="rect11"
       width="169.54776"
       height="169.54774"
       x="18.774147"
       y="40.119793"
       sodipodi:type="rect"
       inkscape:label="Border"
       inkscape:export-filename="iconbetterblack"
       inkscape:export-xdpi="96"
       inkscape:export-ydpi="96" /><rect
       style="display:inline;fill:#ffffff;stroke:#ffffff;stroke-width:0.017741"
       id="rect1"
       width="5.06038"
       height="91.959312"
       x="57.120029"
       y="78.209511" /><rect
       style="fill:#ffffff;fill-opacity:1;stroke:#ffffff;stroke-width:0.017741"
       id="rect1-5"
       width="5.06038"
       height="91.959312"
       x="76.234261"
       y="78.209511" /><rect
       style="fill:#ffffff;stroke:#ffffff;stroke-width:0.017741"
       id="rect1-1"
       width="5.06038"
       height="91.959312"
       x="130.76772"
       y="78.209511" /><rect
       style="fill:#ffffff;stroke:#ffffff;stroke-width:0.017741"
       id="rect1-14"
       width="5.06038"
       height="91.959312"
       x="147.914"
       y="78.209511" /><rect
       style="fill:#ffffff;stroke-width:0.670528"
       id="rect1-16"
       width="5.0725918"
       height="8.9114923"
       x="94.391869"
       y="78.203407" /><rect
       style="fill:#ffffff;stroke:#ffffff;stroke-width:0.00552943"
       id="rect1-16-5"
       width="5.0725918"
       height="8.9114923"
       x="112.73725"
       y="78.203407" /><path
       id="rect1-18"
       style="fill:#ffffff;stroke:#ffffff;stroke-width:0.0084956"
       d="m 117.86926,147.53555 c 0,0 -0.63231,0.68001 -1.87555,1.13345 -1.02459,0.37368 -2.49378,0.50089 -2.97878,0.53412 h -0.1975 v 21.04945 h 5.06951 V 149.2132 h 0.004 z" /><path
       id="rect1-18-3"
       style="fill:#ffffff;stroke:#ffffff;stroke-width:0.00844182"
       d="m 94.009785,147.63074 -0.02183,1.65679 h 0.0042 v 20.77652 h 5.069922 v -20.78292 h -0.145525 c -0.421713,-0.0267 -1.96611,-0.14753 -3.030794,-0.53092 -1.243254,-0.44771 -1.875928,-1.11947 -1.875928,-1.11947 z" /><path
       id="rect2-3"
       style="fill:#ffffff;stroke:#ffffff;stroke-width:0.0180956"
       d="m 92.733919,88.392379 a 1.1382115,1.1382115 0 0 0 -1.137923,1.13827 V 108.8743 H 119.3268 V 89.638412 a 1.2461754,1.2461754 0 0 0 -1.24638,-1.246033 z m 3.233933,8.299146 h 5.891628 v 5.583235 h -5.891628 z m 13.062898,0.07103 h 5.89162 v 5.583245 h -5.89162 z" /><path
       id="rect4"
       style="fill:#ffffff;fill-opacity:1;stroke-width:0.174378"
       d="m 90.243202,110.37903 a 1.7953849,1.8583809 0 0 0 -1.795246,1.85865 v 25.13584 a 10.671161,11.045588 0 0 0 10.670977,11.04589 H 112.537 a 10.722771,11.099008 0 0 0 10.72295,-11.09926 v -24.96916 a 1.9049621,1.9718028 0 0 0 -1.90508,-1.97196 z m 15.676588,7.04203 a 0.30728426,0.30728426 0 0 1 0.28726,0.1528 l 0.70791,1.22594 1.23979,2.14764 a 0.30728426,0.30728426 0 0 1 -0.26612,0.46085 h -1.24949 v 10.47589 c 0.43924,-0.43055 0.93799,-0.7727 0.93799,-0.7727 0,0 1.28672,-0.94889 1.89746,-1.55963 0.61075,-0.61073 0.63271,-1.48304 0.63271,-1.48304 l -0.0638,-1.50521 h -0.64727 a 0.53223195,0.53223195 0 0 1 -0.53224,-0.53223 v -2.81814 a 0.53223195,0.53223195 0 0 1 0.53224,-0.53223 h 2.42519 a 0.53223195,0.53223195 0 0 1 0.53223,0.53223 v 2.81814 a 0.53223195,0.53223195 0 0 1 -0.53223,0.53223 h -0.51665 c 0.0232,0.40227 0.0427,1.22384 -0.096,2.14867 -0.1963,1.30872 -1.298,1.9737 -1.298,1.9737 0,0 -1.11224,1.00368 -1.48305,1.24361 -0.3708,0.23993 -1.40086,1.05952 -1.54888,1.24326 -0.0877,0.10887 -0.16851,0.25435 -0.23978,0.40818 v 4.37601 a 2.6174379,2.6174379 0 0 1 1.9193,2.52256 2.6174379,2.6174379 0 0 1 -2.61751,2.6175 2.6174379,2.6174379 0 0 1 -2.61714,-2.6175 2.6174379,2.6174379 0 0 1 1.87563,-2.51008 v -1.3732 c -0.0932,-0.0798 -0.21017,-0.18123 -0.34893,-0.30459 -0.39262,-0.34899 -0.43617,-0.56695 -1.17777,-1.09044 -0.74161,-0.52349 -2.1376,-1.48339 -2.1376,-1.48339 0,0 -1.2214,-1.26509 -1.17777,-2.53018 0.0231,-0.67185 0.009,-1.36811 -0.009,-1.87356 a 1.7449586,1.7885825 0 0 1 -1.213118,-1.70342 1.7449586,1.7885825 0 0 1 1.745008,-1.78866 1.7449586,1.7885825 0 0 1 1.745,1.78866 1.7449586,1.7885825 0 0 1 -1.17535,1.6906 c 0.0446,2.74778 0.13915,2.4668 0.69544,3.15147 0.56711,0.69798 1.00363,0.91613 1.61437,1.30875 0.4546,0.29224 1.07818,0.75392 1.43938,1.09669 v -13.44995 h -1.20584 a 0.30728426,0.30728426 0 0 1 -0.26612,-0.46085 l 0.70757,-1.22593 1.2398,-2.14765 a 0.30728426,0.30728426 0 0 1 0.24497,-0.1528 z" /><path
       style="fill:#ffffff;fill-opacity:1;stroke-width:0.263398"
       id="rect10"
       width="11.645576"
       height="10.60463"
       x="100.19099"
       y="161.67181"
       inkscape:path-effect="#path-effect10"
       sodipodi:type="rect"
       d="m 100.19099,161.67181 h 11.64557 v 8.72443 a 1.8802074,1.8802074 135 0 1 -1.88021,1.8802 h -7.72901 a 2.0363493,2.0363493 45 0 1 -2.03635,-2.03634 z"
       transform="matrix(0.67052845,0,0,0.67052845,34.610064,40.929832)" /><path
       style="fill:#ffffff;fill-opacity:1;stroke-width:0.17741"
       d="m 103.97217,157.53669 3.8171,0.0437 c 0,0 -0.10522,2.42257 -1.28692,4.88588 -0.88501,1.84486 -1.52823,3.10436 -3.14092,4.66777 -1.79686,1.74194 -3.533538,2.48654 -3.533538,2.48654 l -2e-6,-4.75501 c 0,0 1.38084,-1.35147 2.48657,-3.01006 0.87248,-1.30872 1.35234,-2.70468 1.65771,-4.31877 z"
       id="path10"
       sodipodi:nodetypes="ccssccsc" /></g></svg>
