<?xml version="1.0" encoding="UTF-8" standalone="no"?>
<!-- Created with Inkscape (http://www.inkscape.org/) -->

<svg
   width="155.64719mm"
   height="168.99992mm"
   viewBox="0 0 155.64719 168.99992"
   version="1.1"
   id="svg1"
   xml:space="preserve"
   inkscape:version="1.4.3 (0d15f75, 2025-12-25)"
   sodipodi:docname="iconbetter.svg"
   xmlns:inkscape="http://www.inkscape.org/namespaces/inkscape"
   xmlns:sodipodi="http://sodipodi.sourceforge.net/DTD/sodipodi-0.dtd"
   xmlns="http://www.w3.org/2000/svg"
   xmlns:svg="http://www.w3.org/2000/svg"><sodipodi:namedview
     id="namedview1"
     pagecolor="#ffffff"
     bordercolor="#000000"
     borderopacity="0.25"
     inkscape:showpageshadow="2"
     inkscape:pageopacity="0.0"
     inkscape:pagecheckerboard="0"
     inkscape:deskcolor="#d1d1d1"
     inkscape:document-units="mm"
     showguides="false"
     inkscape:zoom="0.71891835"
     inkscape:cx="310.8837"
     inkscape:cy="271.93631"
     inkscape:window-width="1920"
     inkscape:window-height="1009"
     inkscape:window-x="-8"
     inkscape:window-y="-8"
     inkscape:window-maximized="1"
     inkscape:current-layer="layer2" /><defs
     id="defs1"><inkscape:path-effect
       effect="fillet_chamfer"
       id="path-effect11"
       is_visible="true"
       lpeversion="1"
       nodesatellites_param="F,0,0,1,0,21.960416,0,1 @ F,0,0,1,0,21.960416,0,1 @ F,0,0,1,0,21.960416,0,1 @ F,0,0,1,0,21.960416,0,1"
       radius="83"
       unit="px"
       method="auto"
       mode="F"
       chamfer_steps="1"
       flexible="false"
       use_knot_distance="true"
       apply_no_radius="true"
       apply_with_radius="true"
       only_selected="false"
       hide_knots="false" /><inkscape:path-effect
       effect="fillet_chamfer"
       id="path-effect10"
       is_visible="true"
       lpeversion="1"
       nodesatellites_param="F,0,0,1,0,0,0,1 @ F,0,0,1,0,0,0,1 @ F,0,0,1,0,1.8802074,0,1 @ F,0,0,1,0,2.0363493,0,1"
       radius="0"
       unit="px"
       method="auto"
       mode="F"
       chamfer_steps="1"
       flexible="false"
       use_knot_distance="true"
       apply_no_radius="true"
       apply_with_radius="true"
       only_selected="false"
       hide_knots="false" /><inkscape:path-effect
       effect="fillet_chamfer"
       id="path-effect8"
       is_visible="true"
       lpeversion="1"
       nodesatellites_param="F,0,0,1,0,0.72119581,0,1 @ F,0,0,1,0,0.72119581,0,1 @ F,0,0,1,0,0.72119581,0,1 @ F,0,0,1,0,0.72119581,0,1 @ F,0,0,1,0,0.72119581,0,1 @ F,0,0,1,0,0.72119581,0,1"
       radius="3"
       unit="px"
       method="auto"
       mode="F"
       chamfer_steps="1"
       flexible="false"
       use_knot_distance="true"
       apply_no_radius="true"
       apply_with_radius="true"
       only_selected="false"
       hide_knots="false" /><inkscape:path-effect
       effect="fillet_chamfer"
       id="path-effect6"
       is_visible="true"
       lpeversion="1"
       nodesatellites_param="F,0,0,1,0,0.79374998,0,1 @ F,0,0,1,0,0.79374998,0,1 @ F,0,0,1,0,0.79374998,0,1 @ F,0,0,1,0,0.79374998,0,1"
       radius="3"
       unit="px"
       method="auto"
       mode="F"
       chamfer_steps="1"
       flexible="false"
       use_knot_distance="true"
       apply_no_radius="true"
       apply_with_radius="true"
       only_selected="false"
       hide_knots="false" /><inkscape:path-effect
       effect="fillet_chamfer"
       id="path-effect5"
       is_visible="true"
       lpeversion="1"
       nodesatellites_param="F,0,0,1,0,2.7715168,0,1 @ F,0,0,1,0,2.9406699,0,1 @ F,0,0,1,0,16.552628,0,1 @ F,0,0,1,0,16.47296,0,1"
       radius="0"
       unit="px"
       method="auto"
       mode="F"
       chamfer_steps="1"
       flexible="false"
       use_knot_distance="true"
       apply_no_radius="true"
       apply_with_radius="true"
       only_selected="false"
       hide_knots="false" /><inkscape:path-effect
       effect="fillet_chamfer"
       id="path-effect4"
       is_visible="true"
       lpeversion="1"
       nodesatellites_param="F,0,0,1,0,1.6974842,0,1 @ F,0,0,1,0,1.8584974,0,1 @ F,0,0,1,0,0,0,1 @ F,0,0,1,0,0,0,1"
       radius="0"
       unit="px"
       method="auto"
       mode="F"
       chamfer_steps="1"
       flexible="false"
       use_knot_distance="true"
       apply_no_radius="true"
       apply_with_radius="true"
       only_selected="false"
       hide_knots="false" /><inkscape:path-effect
       effect="fillet_chamfer"
       id="path-effect3"
       is_visible="true"
       lpeversion="1"
       nodesatellites_param="F,0,0,1,0,1.0583333,0,1 @ F,0,0,1,0,1.0583333,0,1 @ F,0,0,1,0,1.0583333,0,1 @ F,0,0,1,0,1.0583333,0,1"
       radius="4"
       unit="px"
       method="auto"
       mode="F"
       chamfer_steps="1"
       flexible="false"
       use_knot_distance="true"
       apply_no_radius="true"
       apply_with_radius="true"
       only_selected="false"
       hide_knots="false" /><inkscape:path-effect
       effect="fillet_chamfer"
       id="path-effect2"
       is_visible="true"
       lpeversion="1"
       nodesatellites_param="F,0,0,1,0,2.1166666,0,1 @ F,0,0,1,0,2.1166666,0,1 @ F,0,0,1,0,2.1166666,0,1 @ F,0,0,1,0,2.1166666,0,1"
       radius="8"
       unit="px"
       method="auto"
       mode="F"
       chamfer_steps="1"
       flexible="false"
       use_knot_distance="true"
       apply_no_radius="true"
       apply_with_radius="true"
       only_selected="false"
       hide_knots="false" /></defs><g
     inkscape:groupmode="layer"
     id="layer2"
     inkscape:label="Layer 2"
     transform="translate(-27.832517,-55.584236)"><rect
       style="display:inline;fill:#ffffff;stroke:#ffffff;stroke-width:0.0264583"
       id="rect1"
       width="7.5468535"
       height="137.14453"
       x="33.570484"
       y="55.597466" /><rect
       style="fill:#ffffff;fill-opacity:1;stroke:#ffffff;stroke-width:0.0264583"
       id="rect1-5"
       width="7.5468535"
       height="137.14453"
       x="62.076706"
       y="55.597466" /><rect
       style="fill:#ffffff;stroke:#ffffff;stroke-width:0.0264583"
       id="rect1-1"
       width="7.5468535"
       height="137.14453"
       x="143.40578"
       y="55.597466" /><rect
       style="fill:#ffffff;stroke:#ffffff;stroke-width:0.0264583"
       id="rect1-14"
       width="7.5468535"
       height="137.14453"
       x="168.97707"
       y="55.597466" /><rect
       style="fill:#ffffff"
       id="rect1-16"
       width="7.5650654"
       height="13.290253"
       x="89.156258"
       y="55.58836" /><rect
       style="fill:#ffffff;stroke:#ffffff;stroke-width:0.00824637"
       id="rect1-16-5"
       width="7.5650654"
       height="13.290253"
       x="116.51584"
       y="55.58836" /><path
       id="rect1-18"
       style="fill:#ffffff;stroke:#ffffff;stroke-width:0.01267"
       d="m 124.16952,158.98762 c 0,0 -0.943,1.01413 -2.79712,1.69037 -1.52804,0.5573 -3.71913,0.74702 -4.44244,0.79657 h -0.29454 v 31.39233 h 7.56046 V 161.4896 h 0.006 z" /><path
       id="rect1-18-3"
       style="fill:#ffffff;stroke:#ffffff;stroke-width:0.0125898"
       d="m 88.586429,159.12958 -0.03256,2.47087 h 0.0062 v 30.98529 h 7.561084 V 161.5909 h -0.217031 c -0.628926,-0.0398 -2.93218,-0.22002 -4.520008,-0.79179 -1.85414,-0.6677 -2.797685,-1.66953 -2.797685,-1.66953 z" /><path
       id="rect2-3"
       style="fill:#ffffff;stroke:#ffffff;stroke-width:0.026987"
       d="m 86.683651,70.783793 a 1.6974842,1.6974842 0 0 0 -1.697054,1.697571 V 101.32973 H 126.34324 V 72.642078 a 1.8584974,1.8584974 0 0 0 -1.8588,-1.858285 z m 4.822962,12.377022 h 8.786547 v 8.326624 h -8.786547 z m 19.481497,0.105937 h 8.78654 v 8.326624 h -8.78654 z" /><path
       id="rect4"
       style="fill:#ffffff;fill-opacity:1;stroke-width:0.26006"
       d="m 82.969093,103.57383 a 2.6775671,2.7715168 0 0 0 -2.67736,2.77192 v 37.4866 a 15.914554,16.47296 0 0 0 15.91428,16.47342 H 116.2172 a 15.991522,16.552628 0 0 0 15.99179,-16.553 v -37.23804 a 2.8409862,2.9406699 0 0 0 -2.84117,-2.9409 z m 23.379457,10.5022 a 0.45827177,0.45827177 0 0 1 0.4284,0.22789 l 1.05575,1.82832 1.84898,3.2029 a 0.45827177,0.45827177 0 0 1 -0.39688,0.6873 h -1.86345 v 15.62333 c 0.65507,-0.6421 1.39889,-1.15238 1.39889,-1.15238 0,0 1.91896,-1.41514 2.82979,-2.32596 0.91086,-0.91083 0.94361,-2.21175 0.94361,-2.21175 l -0.0951,-2.24482 h -0.96531 a 0.79374998,0.79374998 0 0 1 -0.79376,-0.79375 v -4.20285 a 0.79374998,0.79374998 0 0 1 0.79376,-0.79375 h 3.61683 a 0.79374998,0.79374998 0 0 1 0.79375,0.79375 v 4.20285 a 0.79374998,0.79374998 0 0 1 -0.79375,0.79375 h -0.7705 c 0.0346,0.59994 0.0637,1.82519 -0.14314,3.20445 -0.29276,1.95177 -1.93579,2.94349 -1.93579,2.94349 0,0 -1.65876,1.49685 -2.21176,1.85467 -0.553,0.35783 -2.0892,1.58013 -2.30994,1.85415 -0.13079,0.16237 -0.25132,0.37933 -0.3576,0.60875 v 6.52621 a 3.9035449,3.9035449 0 0 1 2.86236,3.76205 3.9035449,3.9035449 0 0 1 -3.90364,3.90364 3.9035449,3.9035449 0 0 1 -3.90311,-3.90364 3.9035449,3.9035449 0 0 1 2.79724,-3.74344 v -2.04794 c -0.13906,-0.11894 -0.31343,-0.27028 -0.52038,-0.45424 -0.58554,-0.52047 -0.65049,-0.84554 -1.75648,-1.62625 -1.10601,-0.78071 -3.187937,-2.21227 -3.187937,-2.21227 0,0 -1.82154,-1.8867 -1.75648,-3.77341 0.0345,-1.00197 0.0139,-2.04034 -0.0129,-2.79415 a 2.6023633,2.6674223 0 0 1 -1.80919,-2.54041 2.6023633,2.6674223 0 0 1 2.60243,-2.66754 2.6023633,2.6674223 0 0 1 2.602427,2.66754 2.6023633,2.6674223 0 0 1 -1.752867,2.52129 c 0.0665,4.09793 0.20752,3.67889 1.037157,4.69997 0.84576,1.04095 1.49677,1.36629 2.4076,1.95182 0.67797,0.43584 1.60796,1.12437 2.14664,1.63556 v -20.05872 h -1.79834 a 0.45827177,0.45827177 0 0 1 -0.39688,-0.6873 l 1.05524,-1.82831 1.84898,-3.20291 a 0.45827177,0.45827177 0 0 1 0.36535,-0.22789 z" /><path
       style="fill:#ffffff;fill-opacity:1;stroke-width:0.263398"
       id="rect10"
       width="11.645576"
       height="10.60463"
       x="100.19099"
       y="161.67181"
       inkscape:path-effect="#path-effect10"
       sodipodi:type="rect"
       d="m 100.19099,161.67181 h 11.64557 v 8.72443 a 1.8802074,1.8802074 135 0 1 -1.88021,1.8802 h -7.72901 a 2.0363493,2.0363493 45 0 1 -2.03635,-2.03634 z" /><path
       style="fill:#ffffff;fill-opacity:1;stroke-width:0.264583"
       d="m 103.44394,173.90292 5.69267,0.0651 c 0,0 -0.15692,3.61292 -1.91925,7.28661 -1.31987,2.75135 -2.27915,4.62973 -4.68425,6.96133 -2.679768,2.59787 -5.269784,3.70833 -5.269784,3.70833 l -3e-6,-7.09144 c 0,0 2.059325,-2.01552 3.708367,-4.48908 1.30119,-1.95178 2.01683,-4.03366 2.47225,-6.44085 z"
       id="path10"
       sodipodi:nodetypes="ccssccsc" /><text
       xml:space="preserve"
       style="font-style:normal;font-variant:normal;font-weight:bold;font-stretch:normal;font-size:29.6333px;font-family:'Gill Sans MT';-inkscape-font-specification:'Gill Sans MT Bold';writing-mode:lr-tb;direction:ltr;fill:#ffffff;fill-opacity:1;stroke-width:0.264583"
       x="25.763395"
       y="224.32372"
       id="text11"><tspan
         sodipodi:role="line"
         id="tspan11"
         style="font-style:normal;font-variant:normal;font-weight:bold;font-stretch:normal;font-size:29.6333px;font-family:'Gill Sans MT';-inkscape-font-specification:'Gill Sans MT Bold';fill:#ffffff;stroke-width:0.264583"
         x="25.763395"
         y="224.32372">USB Prison</tspan></text></g></svg>
